<?xml version="1.0" encoding="UTF-8" standalone="no"?>
<!-- Created with sK1/UniConvertor (http://sk1project.org/) -->
<svg xmlns:dc="http://purl.org/dc/elements/1.1/" xmlns:cc="http://creativecommons.org/ns#" xmlns:rdf="http://www.w3.org/1999/02/22-rdf-syntax-ns#" xmlns:svg="http://www.w3.org/2000/svg" xmlns="http://www.w3.org/2000/svg" xmlns:sodipodi="http://sodipodi.sourceforge.net/DTD/sodipodi-0.dtd" xmlns:inkscape="http://www.inkscape.org/namespaces/inkscape" width="112.96901pt" height="112.97701pt" viewBox="0 0 112.96901 112.97699" version="1.1" id="svg46" sodipodi:docname="Logo Région Bretagne en Breton.svg" inkscape:version="0.92.4 (5da689c313, 2019-01-14)" style="fill-rule:evenodd">
  <metadata id="metadata52">
    <rdf:RDF>
      <cc:Work rdf:about="">
        <dc:format>image/svg+xml</dc:format>
        <dc:type rdf:resource="http://purl.org/dc/dcmitype/StillImage"/>
        <dc:title/>
      </cc:Work>
    </rdf:RDF>
  </metadata>
  <defs id="defs50"/>
  <sodipodi:namedview pagecolor="#ffffff" bordercolor="#666666" borderopacity="1" objecttolerance="10" gridtolerance="10" guidetolerance="10" inkscape:pageopacity="0" inkscape:pageshadow="2" inkscape:window-width="1920" inkscape:window-height="1001" id="namedview48" showgrid="false" inkscape:zoom="3.5567965" inkscape:cx="64.070269" inkscape:cy="81.582615" inkscape:window-x="-9" inkscape:window-y="-9" inkscape:window-maximized="1" inkscape:current-layer="svg46" fit-margin-top="0" fit-margin-left="0" fit-margin-right="0" fit-margin-bottom="0"/>
  <g id="g135">
    <path inkscape:connector-curvature="0" id="path2" d="M 112.969,112.977 V 0 H 0 v 112.977 z" style="fill:#18161b;fill-opacity:1;stroke:none"/>
    <path inkscape:connector-curvature="0" id="path4" d="m 26.787,21.113 v 0 c 0,0 5.012,0.891 9.064,-4.094 4.05,-4.982 1.847,-8.971 1.847,-8.971 v 0 c 0,0 -4.323,-0.39 -8.309,4.263 -3.981,4.654 -2.602,8.802 -2.602,8.802 z" style="fill:#ffffff;stroke:none"/>
    <path inkscape:connector-curvature="0" id="path6" d="m 21.699,25.907 v 0 c 0,0 0.717,5.039 -4.407,8.916 -5.117,3.878 -9.029,1.536 -9.029,1.536 v 0 c 0,0 -0.239,-4.332 4.55,-8.155 4.787,-3.818 8.886,-2.297 8.886,-2.297 z" style="fill:#ffffff;stroke:none"/>
    <path inkscape:connector-curvature="0" id="path8" d="m 20.713,20.806 c 0,0 1.031,-4.531 -3.583,-9.021 C 12.516,7.289 8.313,8.157 8.313,8.157 v 0 c 0,0 -1.044,4.698 3.463,9.292 4.506,4.598 8.937,3.357 8.937,3.357 z" style="fill:#ffffff;stroke:none"/>
    <path inkscape:connector-curvature="0" id="path10" d="m 93.182,44.377 c 5.582,1.58 10.7,4.257 10.7,4.257 0,0 -4.245,5.488 -10.756,8.294 -6.515,2.806 -8.613,1.124 -8.613,1.124 0,0 3.357,1.773 6.108,6.755 2.758,4.985 2.508,8.266 2.508,8.266 C 79.308,69.535 66.164,63.622 54.488,55.39 43.179,47.418 33.534,37.341 25.799,25.894 c 11.054,8.186 23.133,11.088 35.769,11.892 20.148,1.277 30.528,-9.582 30.528,-9.582 0,0 0.846,2.264 -1.464,8.264 -2.309,6.002 -5.376,7.68 -5.376,7.68 0,0 2.353,-1.353 7.926,0.229 z" style="fill:#ffffff;stroke:none"/>
    <g transform="translate(-240.986,-391.079)" id="g26">
      <path inkscape:connector-curvature="0" id="path12" d="m 249.251,472.308 c 0,0 0.031,0.544 0.031,0.64 0,0.128 -0.048,0.192 -0.16,0.241 -0.448,0.191 -0.72,0.303 -1.216,0.303 -1.04,0 -1.696,-0.448 -2.24,-1.52 l -1.328,-2.64 c -0.128,-0.256 -0.24,-0.336 -0.513,-0.351 -0.815,-0.065 -0.639,-0.049 -0.735,-0.049 -0.208,0 -0.239,0.112 -0.239,0.32 0,0.752 0,2.991 0,3.84 0,0.159 -0.017,0.24 -0.177,0.24 -0.144,0 -0.944,-0.065 -0.976,-0.065 -0.048,0 -0.568,0.065 -0.712,0.065 v -10.895 c 0.912,-0.161 2.456,-0.273 3.784,-0.273 2.032,0 3.472,0.977 3.472,3.28 0,1.329 -0.704,2.449 -1.68,2.913 -0.143,0.063 -0.192,0.127 -0.192,0.191 0,0.048 0.032,0.112 0.08,0.208 0.32,0.624 0.768,1.408 1.088,1.984 0.32,0.56 0.672,0.752 0.976,0.752 0.384,0 0.528,-0.175 0.688,-0.175 0.08,0 0.112,0.047 0.112,0.143 0,0.111 -0.063,0.848 -0.063,0.848 z m -5.009,-8.464 c -0.464,0 -0.944,0.049 -1.232,0.097 -0.144,0.015 -0.224,0.047 -0.224,0.255 0,0.241 0.065,0.592 0.065,1.04 v 1.456 c 0,0.384 0.047,0.544 0.415,0.64 0.223,0.065 0.528,0.096 0.896,0.096 1.04,0 1.76,-0.608 1.76,-1.776 0,-1.12 -0.56,-1.808 -1.68,-1.808 z" style="fill:#ffffff;stroke:none"/>
      <path inkscape:connector-curvature="0" id="path14" d="m 257.522,471.38 v 1.376 c 0,0.175 -0.033,0.208 -0.16,0.208 -0.16,0 -0.4,-0.033 -0.56,-0.033 -0.384,0 -1.488,0.561 -3.328,0.561 -1.536,0 -2.544,-0.577 -2.544,-2.175 0,-1.425 0.895,-2.273 2.416,-2.273 0.864,0 1.375,0.288 1.888,0.288 0.384,0 0.448,-0.176 0.448,-0.816 0,-0.896 -0.768,-1.472 -1.888,-1.472 -0.88,0 -1.6,0.225 -2.048,0.544 -0.064,0.048 -0.128,0.064 -0.176,0.064 -0.064,0 -0.081,-0.064 -0.081,-0.144 0,-0.144 0.033,-0.863 0.033,-0.863 0,0 -0.033,-0.577 -0.033,-0.769 0,-0.063 0.064,-0.16 0.129,-0.191 0.607,-0.305 1.616,-0.465 2.64,-0.465 2.08,0 3.344,0.992 3.344,3.072 0,1.088 -0.08,2.288 -0.08,3.088 z m -2.24,-1.056 h -1.121 c -0.784,0 -1.182,0.288 -1.182,0.96 0,0.608 0.479,0.928 1.246,0.928 1.152,0 1.473,-0.576 1.473,-1.472 0,-0.416 -0.032,-0.416 -0.416,-0.416 z" style="fill:#ffffff;stroke:none"/>
      <path inkscape:connector-curvature="0" id="path16" d="m 266.965,473.332 c -0.096,0 -0.896,-0.065 -0.896,-0.065 0,0 -0.705,0.065 -0.817,0.065 -0.175,0 -0.207,-0.048 -0.207,-0.24 0,-0.111 0.016,-0.319 0.016,-0.448 v -3.136 c 0,-1.6 -0.336,-2.576 -1.488,-2.576 -1.264,0 -1.52,1.056 -1.52,2.545 v 3.215 c 0,0.112 0.016,0.4 0.016,0.48 0,0.128 -0.032,0.16 -0.145,0.16 -0.063,0 -0.783,-0.032 -0.783,-0.032 0,0 -0.88,0.032 -0.993,0.032 -0.111,0 -0.175,-0.032 -0.175,-0.176 0,-0.128 0.016,-0.288 0.016,-0.432 v -3.616 c 0,-0.959 0.144,-1.264 0.304,-1.583 0.063,-0.113 0.096,-0.225 0.096,-0.305 0,-0.144 -0.08,-0.256 -0.224,-0.4 l -0.656,-0.671 c -0.096,-0.097 -0.128,-0.161 -0.128,-0.241 0,-0.064 0.064,-0.128 0.128,-0.16 l 0.673,-0.464 c 0.079,-0.048 0.127,-0.064 0.191,-0.064 0.064,0 0.128,0.032 0.176,0.064 l 0.72,0.56 c 0.112,0.08 0.208,0.112 0.288,0.112 0.112,0 0.24,-0.096 0.367,-0.176 0.673,-0.4 1.249,-0.56 2.193,-0.56 1.584,0 2.992,1.04 2.992,3.808 v 3.28 c 0,0.368 0.032,0.623 0.032,0.8 0,0.176 -0.016,0.224 -0.176,0.224 z" style="fill:#ffffff;stroke:none"/>
      <path inkscape:connector-curvature="0" id="path18" d="m 276.495,473.332 c -0.095,0 -0.896,-0.065 -0.896,-0.065 0,0 -0.703,0.065 -0.815,0.065 -0.176,0 -0.209,-0.048 -0.209,-0.24 0,-0.111 0.016,-0.319 0.016,-0.448 v -3.136 c 0,-1.6 -0.336,-2.576 -1.488,-2.576 -1.263,0 -1.52,1.056 -1.52,2.545 v 3.215 c 0,0.112 0.016,0.4 0.016,0.48 0,0.128 -0.032,0.16 -0.143,0.16 -0.064,0 -0.784,-0.032 -0.784,-0.032 0,0 -0.88,0.032 -0.992,0.032 -0.113,0 -0.176,-0.032 -0.176,-0.176 0,-0.128 0.016,-0.288 0.016,-0.432 v -3.616 c 0,-0.959 0.144,-1.264 0.304,-1.583 0.064,-0.113 0.095,-0.225 0.095,-0.305 0,-0.144 -0.079,-0.256 -0.224,-0.4 l -0.655,-0.671 c -0.096,-0.097 -0.129,-0.161 -0.129,-0.241 0,-0.064 0.064,-0.128 0.129,-0.16 l 0.672,-0.464 c 0.08,-0.048 0.128,-0.064 0.191,-0.064 0.064,0 0.128,0.032 0.177,0.064 l 0.719,0.56 c 0.112,0.08 0.209,0.112 0.288,0.112 0.112,0 0.241,-0.096 0.369,-0.176 0.671,-0.4 1.247,-0.56 2.192,-0.56 1.583,0 2.991,1.04 2.991,3.808 v 3.28 c 0,0.368 0.033,0.623 0.033,0.8 0,0.176 -0.017,0.224 -0.177,0.224 z" style="fill:#ffffff;stroke:none"/>
      <path inkscape:connector-curvature="0" id="path20" d="m 285.645,466.692 -1.553,4.672 c -0.672,2.033 -0.72,2.048 -1.423,2.048 h -1.281 c -0.56,0 -0.672,-0.032 -1.375,-2.095 l -1.552,-4.561 c -0.112,-0.352 -0.353,-0.943 -0.353,-1.2 0,-0.079 0.048,-0.128 0.144,-0.128 h 0.672 c 0,0 0.977,-0.111 1.168,-0.111 0.321,0 0.209,0.351 0.417,1.055 l 1.072,3.696 c 0.336,1.152 0.399,1.36 0.656,1.36 0.143,0 0.159,-0.08 0.159,-0.336 0,-0.288 0.048,-0.56 0.16,-0.943 l 1.056,-3.761 c 0.065,-0.256 0.128,-0.592 0.193,-0.8 0.064,-0.208 0.112,-0.271 0.287,-0.271 0.176,0 1.089,0.111 1.089,0.111 h 0.688 c 0.096,0 0.159,0.049 0.159,0.144 0,0.192 -0.272,0.785 -0.383,1.12 z" style="fill:#ffffff;stroke:none"/>
      <path inkscape:connector-curvature="0" id="path22" d="m 293.281,466.468 c 0,0 -0.128,0.784 -0.144,0.801 -0.034,0.143 -0.097,0.223 -0.225,0.223 -0.368,0 -0.463,-0.48 -1.232,-0.48 -1.103,0 -1.359,1.009 -1.359,2.352 v 2.96 c 0,0.304 0.063,0.688 0.063,0.784 0,0.159 -0.048,0.224 -0.208,0.224 -0.095,0 -0.832,-0.048 -0.832,-0.048 0,0 -0.8,0.048 -0.927,0.048 -0.112,0 -0.161,-0.048 -0.161,-0.192 0,-0.159 0.017,-0.976 0.017,-1.136 v -2.656 c 0,-0.928 0.079,-1.376 0.304,-1.808 0.064,-0.112 0.095,-0.24 0.095,-0.32 0,-0.128 -0.08,-0.256 -0.223,-0.4 l -0.624,-0.64 c -0.097,-0.096 -0.16,-0.159 -0.16,-0.239 0,-0.048 0.015,-0.113 0.08,-0.145 l 0.736,-0.512 c 0.063,-0.048 0.111,-0.064 0.16,-0.064 0.064,0 0.127,0.032 0.191,0.08 l 0.688,0.528 c 0.113,0.08 0.225,0.113 0.305,0.113 0.144,0 0.271,-0.081 0.383,-0.177 0.56,-0.416 1.201,-0.544 1.905,-0.544 0.479,0 0.959,0.128 1.184,0.24 0.176,0.096 0.223,0.16 0.223,0.273 0,0.095 -0.239,0.735 -0.239,0.735 z" style="fill:#ffffff;stroke:none"/>
      <path inkscape:connector-curvature="0" id="path24" d="m 298.478,473.492 c -2.577,0 -3.873,-1.471 -3.873,-4.192 0,-1.44 0.657,-2.64 1.313,-3.199 0.943,0 1.184,-0.881 2.783,-0.881 2.177,0 3.569,1.345 3.569,4.208 0,2.864 -1.6,4.064 -3.792,4.064 z m -0.048,-6.736 c -1.056,0 -1.6,1.008 -1.6,2.561 0,1.727 0.592,2.606 1.615,2.606 0.993,0 1.616,-0.879 1.616,-2.526 0,-1.777 -0.559,-2.641 -1.631,-2.641 z" style="fill:#ffffff;stroke:none"/>
    </g>
    <g transform="translate(-240.986,-391.079)" id="g40">
      <path inkscape:connector-curvature="0" id="path28" d="m 255.76,496.86 c -1.68,0 -3.264,-0.335 -4.416,-1.63 -0.264,-0.313 -0.288,-0.41 -0.72,-0.41 h -1.176 c -0.264,0 -0.336,-0.191 -0.336,-0.431 v -13.752 c 0,-0.048 -0.048,-0.576 0.144,-0.576 0.12,0 0.264,0.072 0.384,0.072 0.624,0 1.271,-0.072 1.92,-0.12 1.271,-0.071 2.567,-0.145 3.84,-0.145 2.807,0 5.496,0.817 5.496,4.105 0,1.272 -0.601,2.472 -1.657,3.192 -0.143,0.096 -0.287,0.193 -0.287,0.383 0,0.193 0.191,0.266 0.336,0.336 0.239,0.098 0.48,0.169 0.72,0.312 1.223,0.746 1.799,2.185 1.799,3.578 0,3.599 -2.784,5.086 -6.047,5.086 z m -0.72,-14.207 c -0.504,0 -1.104,0 -1.584,0.096 -0.264,0.048 -0.24,0.216 -0.24,0.455 v 2.833 c 0,0.24 0.048,0.336 0.312,0.336 h 1.439 c 1.249,0 1.801,-0.767 1.801,-1.968 0,-1.08 -0.648,-1.752 -1.728,-1.752 z m -1.512,6.6 c -0.144,0 -0.168,-0.192 -0.264,-0.192 -0.048,0 -0.048,0.12 -0.048,0.192 0,0.12 0,0.192 0,0.313 v 1.943 c 0,1.392 0.576,2.4 2.087,2.4 1.417,0 1.992,-1.128 1.992,-2.4 0,-2.472 -1.919,-2.256 -3.767,-2.256 z" style="fill:#ffffff;stroke:none"/>
      <path inkscape:connector-curvature="0" id="path30" d="m 282.207,494.774 c 0,0.382 0.048,0.792 0.048,1.175 0,0.192 -0.096,0.336 -0.288,0.36 -0.816,0.384 -1.296,0.551 -2.208,0.551 -1.967,0 -3.048,-0.815 -3.863,-2.567 l -1.681,-3.624 c -0.215,-0.48 -0.48,-0.384 -0.936,-0.384 -0.336,0 -0.408,0.144 -0.408,0.456 v 5.471 c 0,0.241 -0.024,0.409 -0.311,0.409 -0.625,0 -1.249,-0.096 -1.872,-0.096 -0.624,0 -1.273,0.096 -1.896,0.096 -0.097,0 -0.193,0 -0.193,-0.121 0,-0.239 0.168,-0.478 0.168,-0.719 v -15.024 c 0,-0.24 0.072,-0.384 0.312,-0.432 0.624,-0.144 1.32,-0.192 1.968,-0.264 1.44,-0.119 2.904,-0.193 4.368,-0.193 3.24,0 5.424,1.49 5.424,4.921 0,1.872 -0.84,3.528 -2.496,4.441 -0.096,0.047 -0.263,0.119 -0.263,0.263 0,0.12 1.127,2.208 1.272,2.495 0.336,0.601 0.863,1.224 1.608,1.224 0.503,0 0.863,-0.263 1.175,-0.263 0.096,0.024 0.192,0.12 0.192,0.24 0,0.528 -0.12,1.056 -0.12,1.585 z m -7.824,-11.882 c -0.432,0 -0.912,0.05 -1.319,0.145 -0.217,0.048 -0.289,0.216 -0.289,0.432 0,0.504 0.096,0.984 0.096,1.488 v 1.656 c 0,0.456 0.025,0.624 0.481,0.792 0.311,0.096 0.648,0.12 0.959,0.12 1.392,0 2.184,-0.936 2.184,-2.305 0,-1.367 -0.672,-2.328 -2.112,-2.328 z" style="fill:#ffffff;stroke:none"/>
      <path inkscape:connector-curvature="0" id="path32" d="m 301.548,495.445 c -0.336,0 -0.648,-0.047 -0.983,-0.047 -0.312,0 -0.505,0.118 -0.745,0.262 -1.584,0.961 -3.336,1.2 -5.16,1.2 -3.455,0 -6.168,-1.512 -6.168,-5.279 0,-0.816 0.145,-1.608 0.456,-2.351 0.216,-0.505 0.936,-1.609 0.936,-2.089 0,-0.432 -0.168,-0.84 -0.264,-1.249 -0.095,-0.454 -0.168,-0.91 -0.168,-1.367 0,-3.384 2.952,-4.751 5.952,-4.751 1.319,0 3.216,0.094 4.416,0.719 0.144,0.073 0.336,0.12 0.336,0.312 v 0.12 c 0,0.552 -0.36,1.104 -0.36,1.656 0,0.384 0,0.768 -0.047,1.176 0,0.024 -0.025,0.408 -0.097,0.408 -0.216,0 -0.264,-0.096 -0.432,-0.216 -0.695,-0.528 -2.088,-0.745 -2.928,-0.745 -1.248,0 -2.712,0.265 -2.712,1.801 0,0.84 0.456,1.199 1.272,1.199 h 3.577 c 0.336,0 0.432,0.026 0.432,0.385 0,0.48 -0.073,0.984 -0.073,1.464 0,0.456 0.073,0.936 0.073,1.392 0,0.336 -0.169,0.336 -0.432,0.336 h -4.105 c -0.863,0 -1.344,0.095 -1.344,1.079 0,1.8 1.272,2.401 2.904,2.401 1.416,0 2.617,-0.575 2.617,-2.136 0,-0.241 0.024,-0.311 0.287,-0.311 0.408,0.023 0.84,0.046 1.248,0.046 0.481,0 0.985,-0.046 1.465,-0.046 0.311,0 0.287,0.143 0.287,0.382 0,0.624 -0.048,1.225 -0.048,1.849 0,0.696 0.072,1.416 0.072,2.111 0,0.168 -0.072,0.289 -0.264,0.289 z" style="fill:#ffffff;stroke:none"/>
      <path inkscape:connector-curvature="0" id="path34" d="m 312.929,496.621 c -0.649,0 -1.296,-0.121 -1.944,-0.121 -0.145,0 -0.336,0.048 -0.481,0.073 -0.526,0.048 -1.103,0.168 -1.631,0.168 -0.216,0 -0.168,-0.216 -0.168,-0.36 v -15.432 c 0,-0.336 -0.097,-0.912 0.384,-0.912 0.624,0 1.225,0.072 1.847,0.072 0.576,0 1.176,-0.12 1.753,-0.12 0.24,0 0.312,0.096 0.312,0.336 0,0.48 -0.048,0.984 -0.048,1.464 v 12.12 c 0,0.504 0.025,1.033 0.071,1.536 0.025,0.312 0.073,0.624 0.073,0.936 0,0.144 0,0.24 -0.168,0.24 z" style="fill:#ffffff;stroke:none"/>
      <path inkscape:connector-curvature="0" id="path36" d="m 333.329,493.668 c 0,0.84 0.072,1.656 0.072,2.496 0,0.217 -0.072,0.241 -0.264,0.265 -0.289,0.048 -0.6,0.048 -0.888,0.071 -0.552,0.048 -1.104,0.121 -1.633,0.121 h -7.583 c -2.016,0 -3.168,-1.2 -3.168,-3.192 0,-1.128 0.552,-2.209 1.248,-3.048 l 4.609,-5.664 c 0.143,-0.169 0.287,-0.336 0.454,-0.48 0.145,-0.096 0.865,-0.6 0.865,-0.744 0,-0.144 -0.097,-0.168 -0.217,-0.168 -0.455,0 -0.888,0.192 -1.344,0.192 h -2.376 c -0.407,0 -0.815,0.023 -1.199,0.096 -0.216,0.024 -0.48,0.144 -0.696,0.144 -0.096,0 -0.072,-0.048 -0.072,-0.12 0,-0.6 0.096,-1.2 0.096,-1.8 0,-0.479 -0.12,-0.984 -0.12,-1.464 0,-0.36 0.144,-0.36 0.456,-0.36 3.504,0 7.008,0.024 10.512,0.024 0.672,0 1.248,0.384 1.248,1.104 0,0.384 -0.145,0.792 -0.385,1.104 l -7.343,9.168 c -0.192,0.239 -0.41,0.431 -0.648,0.624 -0.192,0.143 -1.2,0.649 -1.2,0.864 0,0.263 1.032,0.24 1.176,0.24 h 3.72 c 0.552,0 1.032,0.24 1.321,0.24 0.575,0 0.287,-1.825 0.672,-1.825 0.478,0 0.959,0.05 1.439,0.05 0.359,0 0.695,-0.05 1.056,-0.05 0.264,0 0.288,0.05 0.288,0.312 0,0.601 -0.096,1.201 -0.096,1.8 z" style="fill:#ffffff;stroke:none"/>
      <path inkscape:connector-curvature="0" id="path38" d="m 353.498,496.86 c -2.567,0 -3.527,-1.391 -3.527,-3.838 v -2.521 c 0,-0.336 0.047,-1.056 -0.434,-1.056 -0.336,0 -0.744,0.384 -1.176,0.384 h -3.023 c -0.481,0 -0.528,0.336 -0.528,0.744 v 4.128 c 0,0.361 0,0.72 0.047,1.08 0,0.192 0.074,0.383 0.074,0.577 0,0.142 0,0.263 -0.169,0.263 -0.672,0 -1.344,-0.121 -2.016,-0.121 -0.553,0 -1.128,0.121 -1.681,0.121 -0.647,0 -0.504,-1.441 -0.504,-1.824 0,-4.752 -0.024,-9.504 -0.024,-14.257 0,-0.215 0,-0.503 0.289,-0.503 0.575,0 1.176,0.072 1.753,0.072 0.672,0 1.318,-0.12 1.99,-0.12 0.241,0 0.288,0.168 0.288,0.36 0,0.48 -0.047,0.96 -0.047,1.44 v 3.936 c 0,0.36 0.144,0.6 0.528,0.6 h 4.056 c 0.409,0 0.577,-0.216 0.577,-0.624 v -3.96 c 0,-0.383 -0.048,-0.792 -0.048,-1.175 0,-0.289 0.023,-0.529 0.384,-0.529 0.624,0 1.222,0.096 1.847,0.096 0.6,0 1.322,-0.096 1.801,-0.021 v 16.727 c 0,0 -10e-4,0.021 -0.457,0.021 z" style="fill:#ffffff;stroke:none"/>
    </g>
  </g>
</svg>