<svg xmlns="http://www.w3.org/2000/svg" xmlns:xlink="http://www.w3.org/1999/xlink" width="144" height="148" viewBox="0 0 144 148">
  <defs>
    <clipPath id="clip-Plan_de_travail_6">
      <rect width="144" height="148"/>
    </clipPath>
  </defs>
  <g id="Plan_de_travail_6" data-name="Plan de travail – 6" clip-path="url(#clip-Plan_de_travail_6)">
    <rect width="144" height="148" fill="none"/>
    <path id="Tracé_135" data-name="Tracé 135" d="M105.527,72.774a2.6,2.6,0,0,0-2.586-2.587A31.061,31.061,0,0,1,71.9,39.149a2.587,2.587,0,0,0-5.173,0,30.9,30.9,0,0,1-5.458,17.615,2.586,2.586,0,0,0,4.268,2.923,34.755,34.755,0,0,0,3.8-7.087A36.4,36.4,0,0,0,89.518,72.749,36.368,36.368,0,0,0,69.342,92.925,36.408,36.408,0,0,0,49.193,72.749a36.939,36.939,0,0,0,8.691-4.993,2.581,2.581,0,1,0-3.157-4.085,30.674,30.674,0,0,1-18.985,6.492,2.587,2.587,0,0,0,0,5.173A31.062,31.062,0,0,1,66.78,106.375a2.587,2.587,0,0,0,5.173,0,31.063,31.063,0,0,1,31.038-31.038,2.6,2.6,0,0,0,2.587-2.587Z" transform="translate(-9.745 -16.508)" fill="#fb8500"/>
    <path id="Tracé_136" data-name="Tracé 136" d="M50.775,84.9a13.32,13.32,0,0,1-13.31-13.31,2.218,2.218,0,1,0-4.437,0A13.32,13.32,0,0,1,19.719,84.9a2.218,2.218,0,1,0,0,4.437,13.32,13.32,0,0,1,13.31,13.31,2.218,2.218,0,0,0,4.437,0,13.32,13.32,0,0,1,13.31-13.31,2.218,2.218,0,0,0,0-4.437ZM35.246,94.064A18.012,18.012,0,0,0,28.3,87.12a18,18,0,0,0,6.944-6.942A18,18,0,0,0,42.19,87.12,18.012,18.012,0,0,0,35.246,94.064Z" transform="translate(67.597 23.079)" fill="#fb8500"/>
  </g>
</svg>
