<?xml version="1.0" encoding="iso-8859-1"?>
<!-- Uploaded to: SVG Repo, www.svgrepo.com, Generator: SVG Repo Mixer Tools -->
<!DOCTYPE svg PUBLIC "-//W3C//DTD SVG 1.1//EN" "http://www.w3.org/Graphics/SVG/1.1/DTD/svg11.dtd">
<svg fill="#FFFFFF" height="800px" width="800px" version="1.1" id="Capa_1" xmlns="http://www.w3.org/2000/svg" xmlns:xlink="http://www.w3.org/1999/xlink" 
	 viewBox="0 0 60 60" xml:space="preserve">
<g>
	<path d="M29,50.983c0,3.309,2.691,6,6,6s6-2.691,6-6s-2.691-6-6-6S29,47.675,29,50.983z M35,46.983c2.206,0,4,1.794,4,4
		s-1.794,4-4,4s-4-1.794-4-4S32.794,46.983,35,46.983z"/>
	<path d="M43.77,48.622c0.683-0.824,1.778-0.824,2.461,0c0.728,0.878,1.711,1.361,2.77,1.361s2.042-0.483,2.77-1.361
		c0.683-0.824,1.778-0.824,2.461,0c0.198,0.238,0.483,0.361,0.77,0.361c0.225,0,0.451-0.075,0.638-0.23
		c0.425-0.353,0.484-0.982,0.131-1.408c-0.728-0.878-1.711-1.361-2.77-1.361s-2.042,0.483-2.77,1.361
		c-0.683,0.824-1.778,0.824-2.461,0c-0.728-0.878-1.711-1.361-2.77-1.361s-2.042,0.483-2.77,1.361
		c-0.353,0.426-0.294,1.056,0.131,1.408C42.787,49.106,43.417,49.048,43.77,48.622z"/>
	<path d="M43.77,54.622c0.683-0.824,1.778-0.824,2.461,0c0.728,0.878,1.711,1.361,2.77,1.361s2.042-0.483,2.77-1.361
		c0.683-0.824,1.778-0.824,2.461,0c0.198,0.238,0.483,0.361,0.77,0.361c0.225,0,0.451-0.075,0.638-0.23
		c0.425-0.353,0.484-0.982,0.131-1.408c-0.728-0.878-1.711-1.361-2.77-1.361s-2.042,0.483-2.77,1.361
		c-0.683,0.824-1.778,0.824-2.461,0c-0.728-0.878-1.711-1.361-2.77-1.361s-2.042,0.483-2.77,1.361
		c-0.353,0.426-0.294,1.056,0.131,1.408C42.787,55.106,43.417,55.048,43.77,54.622z"/>
	<path d="M32.543,0.985c-1.387-1.291-3.699-1.291-5.086,0L0.527,26.056L0,26.087v0.46v32.308v1.129h0.683h0.446h1.619h56.124H60
		v-1.129V27.087v-0.54L32.543,0.985z M47,25.983h1c0.552,0,1,0.447,1,1s-0.448,1-1,1h-1c-0.552,0-1-0.447-1-1
		S46.448,25.983,47,25.983z M42,25.983h1c0.552,0,1,0.447,1,1s-0.448,1-1,1h-1c-0.552,0-1-0.447-1-1S41.448,25.983,42,25.983z
		 M37,25.983h1c0.552,0,1,0.447,1,1s-0.448,1-1,1h-1c-0.552,0-1-0.447-1-1S36.448,25.983,37,25.983z M32,25.983h1
		c0.552,0,1,0.447,1,1s-0.448,1-1,1h-1c-0.552,0-1-0.447-1-1S31.448,25.983,32,25.983z M27,25.983h1c0.552,0,1,0.447,1,1
		s-0.448,1-1,1h-1c-0.552,0-1-0.447-1-1S26.448,25.983,27,25.983z M22,25.983h1c0.552,0,1,0.447,1,1s-0.448,1-1,1h-1
		c-0.552,0-1-0.447-1-1S21.448,25.983,22,25.983z M17,25.983h1c0.552,0,1,0.447,1,1s-0.448,1-1,1h-1c-0.552,0-1-0.447-1-1
		S16.448,25.983,17,25.983z M12,25.983h1c0.552,0,1,0.447,1,1s-0.448,1-1,1h-1c-0.552,0-1-0.447-1-1S11.448,25.983,12,25.983z
		 M2,57.27V28.677l25.929,14.297L2,57.27z M58,57.983H4.849l27.222-15.01L58,28.677V57.983z"/>
</g>
</svg>