<svg width="800" height="600" xmlns="http://www.w3.org/2000/svg">

 <g>
  <title>Layer 1</title>
  <path id="svg_5" d="m259.42805,268.28517c31.96351,53.15153 38.20359,69.29291 27.63531,71.48497c-20.64444,4.28213 -16.4959,28.77229 12.39944,73.19786c36.23786,55.71455 107.21673,89.92836 173.88777,83.81881c25.87784,-2.37139 55.1339,-7.26536 65.01345,-10.87564c9.8795,-3.61032 3.81705,3.1153 -13.47213,14.94572c-86.49042,59.18246 -193.30992,55.05991 -278.52867,-10.74932c-33.97832,-26.23947 -80.7272,-102.9039 -80.7272,-132.38631c0,-8.35217 -7.70728,-16.44509 -17.12727,-17.98417c-15.4053,-2.51701 -13.33645,-9.14439 20.57762,-65.91817c20.73771,-34.71593 40.25885,-65.61005 43.38032,-68.65359c3.12153,-3.04353 24.25412,25.36037 46.96139,63.11984l-0.00002,0.00001zm274.75392,102.46961c-31.96353,-53.15151 -38.20359,-69.29295 -27.63536,-71.48497c20.64444,-4.28206 16.49592,-28.77228 -12.39939,-73.19786c-36.23788,-55.71456 -107.21682,-89.92837 -173.88782,-83.81884c-25.87784,2.37136 -55.13384,7.26542 -65.01338,10.87571c-9.87955,3.61025 -3.81709,-3.11535 13.47209,-14.94575c86.49044,-59.18249 193.30994,-55.05997 278.52869,10.74935c33.97833,26.23938 80.72718,102.90387 80.72718,132.38622c0,8.35223 7.70735,16.44509 17.12724,17.98417c15.40537,2.51706 13.33647,9.14439 -20.57755,65.9182c-20.7377,34.71588 -40.25888,65.61002 -43.38032,68.65359c-3.12154,3.04353 -24.25412,-25.36034 -46.96139,-63.11982l0,-0.00001z" fill="#FABA6F"/>
 </g>
</svg>